#!OML:ASF E:\acrobat2\Project_11_07_03\Capture day 1\Session 1\Acrobat.ASF
:FULLY-SPECIFIED
:DEGREES
1072
root 5.93848 27.737 -25.4205 6.96283 8.08082 -2.64676
lowerback 3.16012 1.89101 0.6799
upperback 3.03064 2.55512 -2.1233
thorax 1.46803 1.31613 -2.60499
lowerneck -0.776288 -1.74423 -2.08986
upperneck -8.36783 -2.00673 5.10429
head -2.44821 -1.06801 2.04021
rclavicle -1.41137e-014 -3.02153e-014
rhumerus -46.389 -12.2265 -69.7173
rradius 65.6265
rwrist -41.4693
rhand -0.15235 -19.8789
rfingers 7.12502
rthumb 25.4444 -48.2006
lclavicle -1.41137e-014 -3.02153e-014
lhumerus -29.3143 28.1091 65.5188
lradius 65.9224
lwrist 63.5757
lhand -32.7024 -3.84609
lfingers 7.12502
lthumb -5.92687 26.051
rfemur -12.8255 1.4824 26.7484
rtibia 22.5607
rfoot -28.3477 -12.0638
rtoes -17.6217
lfemur -26.0339 0.647046 -8.42106
ltibia 44.7642
lfoot 0.194071 -15.4659
ltoes 33.6338
1073
root 5.95133 27.7553 -25.4624 7.13829 8.00899 -2.59911
lowerback 3.09575 1.98574 0.646233
upperback 2.94503 2.67995 -2.16665
thorax 1.42288 1.37733 -2.63186
lowerneck -0.566238 -1.85246 -2.02906
upperneck -8.4878 -2.13928 5.24079
head -2.52072 -1.14319 2.08289
rclavicle -6.75868e-014 2.94201e-014
rhumerus -46.2736 -11.8606 -70.0615
rradius 65.5987
rwrist -41.0234
rhand -0.0378511 -19.8737
rfingers 7.12502
rthumb 25.5541 -48.1797
lclavicle -6.75868e-014 2.94201e-014
lhumerus -29.5984 28.0186 65.3356
lradius 66.1789
lwrist 63.3585
lhand -32.7212 -4.02163
lfingers 7.12502
lthumb -5.94506 25.875
rfemur -12.3261 1.86845 26.7336
rtibia 21.5785
rfoot -28.4415 -12.3144
rtoes -17.6384
lfemur -26.7143 1.36771 -8.86649
ltibia 44.5644
lfoot 0.664147 -15.9109
ltoes 34.6778
1074
root 5.96318 27.7713 -25.5055 7.34182 7.96668 -2.55456
lowerback 3.0122 2.05847 0.609687
upperback 2.8436 2.77535 -2.21824
thorax 1.371 1.42368 -2.66469
lowerneck -0.308235 -1.94587 -1.9741
upperneck -8.65037 -2.24875 5.3952
head -2.61732 -1.20843 2.13461
rclavicle 1.19271e-014 -1.59028e-015
rhumerus -46.1891 -11.5442 -70.4138
rradius 65.6161
rwrist -40.5518
rhand 0.170624 -19.8654
rfingers 7.12502
rthumb 25.7538 -48.1426
lclavicle 1.19271e-014 -1.59028e-015
lhumerus -29.8993 27.9445 65.0817
lradius 66.4189
lwrist 63.185
lhand -32.578 -4.04569
lfingers 7.12502
lthumb -5.80675 25.8547
rfemur -11.8869 2.17736 26.7026
rtibia 20.6437
rfoot -28.5208 -12.5322
rtoes -17.6483
lfemur -27.3642 2.07405 -9.35458
ltibia 44.1701
lfoot 1.00212 -16.278
ltoes 35.3304
1075
root 5.97569 27.7857 -25.5472 7.51907 7.87953 -2.54332
lowerback 2.91489 2.13422 0.592856
upperback 2.76797 2.87569 -2.26673
thorax 1.35454 1.47331 -2.70419
lowerneck -0.0936429 -2.02811 -1.91202
upperneck -8.8424 -2.34176 5.53223
head -2.71707 -1.26521 2.17943
rclavicle 6.97734e-014 -1.11319e-014
rhumerus -46.0935 -11.2901 -70.7702
rradius 65.6773
rwrist -40.0588
rhand 0.467635 -19.8101
rfingers 7.12502
rthumb 26.0382 -48.0457
lclavicle 6.97734e-014 -1.11319e-014
lhumerus -30.1683 27.9084 64.7973
lradius 66.635
lwrist 63.057
lhand -32.4634 -4.0982
lfingers 7.12502
lthumb -5.69617 25.8052
rfemur -11.4483 2.4401 26.6846
rtibia 19.7687
rfoot -28.5803 -12.6651
rtoes -17.6141
lfemur -27.8669 2.80141 -9.84812
ltibia 43.5312
lfoot 1.31408 -16.5678
ltoes 35.8053
1076
root 5.9891 27.7985 -25.5864 7.64942 7.7318 -2.56604
lowerback 2.8099 2.21265 0.581259
upperback 2.7304 2.98031 -2.29924
thorax 1.38128 1.52564 -2.72879
lowerneck 0.0757172 -2.09309 -1.84824
upperneck -9.09015 -2.41166 5.62109
head -2.829 -1.3093 2.20833
rclavicle 5.96354e-015 -9.54166e-015
rhumerus -45.9605 -11.0715 -71.1265
rradius 65.7753
rwrist -39.547
rhand 0.81651 -19.6745
rfingers 7.12502
rthumb 26.3722 -47.8605
lclavicle 5.96354e-015 -9.54166e-015
lhumerus -30.4075 27.9421 64.4994
lradius 66.822
lwrist 62.9668
lhand -32.3767 -4.1994
lfingers 7.12502
lthumb -5.61249 25.7063
rfemur -10.998 2.64499 26.681
rtibia 18.9782
rfoot -28.6134 -12.7118
rtoes -17.6861
lfemur -28.1863 3.54556 -10.3395
ltibia 42.6537
lfoot 1.60669 -16.778
ltoes 35.9636
1077
root 6.00249 27.8092 -25.6244 7.7402 7.5441 -2.61475
lowerback 2.72229 2.28117 0.560678
upperback 2.71879 3.07176 -2.31483
thorax 1.42296 1.57135 -2.73069
lowerneck 0.20047 -2.13586 -1.78142
upperneck -9.38345 -2.4529 5.65691
head -2.95027 -1.33762 2.21891
rclavicle -3.95581e-014 3.18055e-015
rhumerus -45.7811 -10.8628 -71.4915
rradius 65.9029
rwrist -39.0131
rhand 1.17999 -19.4202
rfingers 7.12502
rthumb 26.7201 -47.5536
lclavicle -3.95581e-014 3.18055e-015
lhumerus -30.6287 28.0619 64.1783
lradius 66.9716
lwrist 62.9125
lhand -32.4065 -4.43034
lfingers 7.12502
lthumb -5.64118 25.4746
rfemur -10.5618 2.78545 26.6885
rtibia 18.2996
rfoot -28.6294 -12.6988
rtoes -17.965
lfemur -28.3496 4.28309 -10.8252
ltibia 41.585
lfoot 1.85997 -16.8996
ltoes 35.7002
1078
root 6.01523 27.8173 -25.6623 7.80273 7.34109 -2.68934
lowerback 2.64248 2.3334 0.520858
upperback 2.72928 3.14135 -2.30705
thorax 1.47942 1.60578 -2.69717
lowerneck 0.280415 -2.15513 -1.72936
upperneck -9.66928 -2.46428 5.67299
head -3.06257 -1.3494 2.224
rclavicle -2.20651e-014 1.59028e-014
rhumerus -45.5436 -10.6528 -71.8594
rradius 66.0497
rwrist -38.4592
rhand 1.53138 -19.0229
rfingers 7.12502
rthumb 27.0563 -47.1046
lclavicle -2.20651e-014 1.59028e-014
lhumerus -30.8295 28.2626 63.8413
lradius 67.075
lwrist 62.8826
lhand -32.5848 -4.79418
lfingers 7.12502
lthumb -5.81337 25.1061
rfemur -10.1665 2.86049 26.7107
rtibia 17.7479
rfoot -28.6331 -12.6434
rtoes -18.5008
lfemur -28.3909 4.9845 -11.2918
ltibia 40.3751
lfoot 2.12786 -16.8988
ltoes 35.4193
1079
root 6.02729 27.8222 -25.7007 7.85375 7.15013 -2.77858
lowerback 2.56398 2.36312 0.463903
upperback 2.73483 3.18048 -2.28588
thorax 1.52663 1.62435 -2.64011
lowerneck 0.404881 -2.14763 -1.69899
upperneck -9.94035 -2.44015 5.69867
head -3.18008 -1.34363 2.23621
rclavicle -4.57205e-015 -1.66979e-014
rhumerus -45.2893 -10.433 -72.2295
rradius 66.2137
rwrist -37.8857
rhand 1.84392 -18.554
rfingers 7.12502
rthumb 27.3553 -46.5889
lclavicle -4.57205e-015 -1.66979e-014
lhumerus -31.0522 28.4997 63.4658
lradius 67.1393
lwrist 62.8661
lhand -32.8466 -5.20025
lfingers 7.12502
lthumb -6.06616 24.6929
rfemur -9.83746 2.85662 26.7316
rtibia 17.3261
rfoot -28.6257 -12.5426
rtoes -19.2397
lfemur -28.3473 5.61202 -11.7453
ltibia 39.071
lfoot 2.48476 -16.7349
ltoes 35.8981
1080
root 6.03903 27.8237 -25.7396 7.90193 6.97951 -2.87118
lowerback 2.48086 2.3714 0.389846
upperback 2.69428 3.18997 -2.25784
thorax 1.52604 1.62698 -2.56713
lowerneck 0.727571 -2.11206 -1.70243
upperneck -10.2135 -2.37748 5.75403
head -3.33782 -1.32132 2.26826
rclavicle 7.35503e-015 3.10104e-014
rhumerus -45.1055 -10.1863 -72.5841
rradius 66.3994
rwrist -37.2893
rhand 2.11602 -18.1196
rfingers 7.12502
rthumb 27.6155 -46.1131
lclavicle 7.35503e-015 3.10104e-014
lhumerus -31.3909 28.716 63.0162
lradius 67.1916
lwrist 62.864
lhand -33.1238 -5.56591
lfingers 7.12502
lthumb -6.33371 24.3194
rfemur -9.58122 2.77396 26.7337
rtibia 17.0395
rfoot -28.6288 -12.3776
rtoes -20.0842
lfemur -28.233 6.08865 -12.1676
ltibia 37.7804
lfoot 2.7914 -16.3633
ltoes 36.8693
1081
root 6.05101 27.8218 -25.7779 7.93526 6.80497 -2.97138
lowerback 2.39424 2.36746 0.301119
upperback 2.64094 3.18283 -2.22608
thorax 1.51241 1.62084 -2.48222
lowerneck 1.07875 -2.05818 -1.72135
upperneck -10.4058 -2.29084 5.84431
head -3.47489 -1.2876 2.31297
rclavicle 8.74653e-015 3.10104e-014
rhumerus -44.9309 -9.93893 -72.9323
rradius 66.5931
rwrist -36.6657
rhand 2.3662 -17.7823
rfingers 7.12502
rthumb 27.8548 -45.7373
lclavicle 8.74653e-015 3.10104e-014
lhumerus -31.7779 28.9228 62.5267
lradius 67.2316
lwrist 62.8711
lhand -33.346 -5.83953
lfingers 7.12502
lthumb -6.54821 24.0392
rfemur -9.37793 2.65264 26.7163
rtibia 16.8638
rfoot -28.6323 -12.1595
rtoes -21.0211
lfemur -28.0436 6.35087 -12.5133
ltibia 36.6506
lfoot 2.83374 -15.896
ltoes 37.2178
1082
root 6.06338 27.8168 -25.8151 7.94157 6.59838 -3.08798
lowerback 2.30993 2.35315 0.195363
upperback 2.5674 3.1612 -2.18194
thorax 1.47445 1.60681 -2.37563
lowerneck 1.48426 -1.98171 -1.75847
upperneck -10.5106 -2.17597 5.9601
head -3.59394 -1.24032 2.36783
rclavicle -1.90833e-014 -3.97569e-015
rhumerus -44.7863 -9.65143 -73.2683
rradius 66.7957
rwrist -36.0183
rhand 2.60729 -17.5693
rfingers 7.12502
rthumb 28.0852 -45.4867
lclavicle -1.90833e-014 -3.97569e-015
lhumerus -32.2613 29.1094 61.9823
lradius 67.2756
lwrist 62.9055
lhand -33.4497 -5.96076
lfingers 7.12502
lthumb -6.6483 23.9149
rfemur -9.21689 2.52554 26.6867
rtibia 16.7973
rfoot -28.6233 -11.8956
rtoes -21.964
lfemur -27.7958 6.35563 -12.7408
ltibia 35.8296
lfoot 2.33772 -15.5055
ltoes 36.7532
1083
root 6.0761 27.8087 -25.8506 7.9137 6.34423 -3.23177
lowerback 2.22772 2.331 0.0790048
upperback 2.48495 3.12874 -2.12187
thorax 1.42438 1.58702 -2.24711
lowerneck 1.92352 -1.8804 -1.80403
upperneck -10.5597 -2.02962 6.08437
head -3.70238 -1.17765 2.42537
rclavicle 4.81059e-014 -1.59028e-014
rhumerus -44.6509 -9.32716 -73.5927
rradius 66.9926
rwrist -35.3404
rhand 2.86779 -17.4603
rfingers 7.12502
rthumb 28.3342 -45.3366
lclavicle 4.81059e-014 -1.59028e-014
lhumerus -32.829 29.2774 61.3964
lradius 67.3358
lwrist 62.986
lhand -33.6027 -6.10447
lfingers 7.12502
lthumb -6.79608 23.7665
rfemur -9.10221 2.39663 26.6541
rtibia 16.862
rfoot -28.6 -11.5676
rtoes -22.8
lfemur -27.5155 6.0898 -12.8243
ltibia 35.4046
lfoot 1.21464 -15.2735
ltoes 35.2545
1084
root 6.08875 27.7978 -25.8846 7.84891 6.03695 -3.40514
lowerback 2.14301 2.30772 -0.0522928
upperback 2.41316 3.0948 -2.04577
thorax 1.38514 1.56636 -2.09348
lowerneck 2.37839 -1.75609 -1.8349
upperneck -10.6299 -1.85253 6.18519
head -3.82392 -1.10009 2.47185
rclavicle 1.11319e-014 7.95139e-015
rhumerus -44.4986 -8.99525 -73.9031
rradius 67.1751
rwrist -34.6219
rhand 3.17468 -17.4183
rfingers 7.12502
rthumb 28.6275 -45.2455
lclavicle 1.11319e-014 7.95139e-015
lhumerus -33.4248 29.4395 60.7999
lradius 67.3973
lwrist 63.0994
lhand -33.7551 -6.2397
lfingers 7.12502
lthumb -6.94318 23.6264
rfemur -9.04987 2.24358 26.6206
rtibia 17.0994
rfoot -28.5563 -11.1672
rtoes -23.5561
lfemur -27.2194 5.62322 -12.7781
ltibia 35.3623
lfoot -0.47659 -15.1763
ltoes 32.7134
